<svg fill="none" height="275" viewBox="0 0 1527 275" width="1527" xmlns="http://www.w3.org/2000/svg" xmlns:xlink="http://www.w3.org/1999/xlink"><radialGradient id="a" cx="0" cy="0" gradientTransform="matrix(0 125 -130.5 0 143 137.5)" gradientUnits="userSpaceOnUse" r="1"><stop offset="0" stop-color="#818cf8"/><stop offset="1" stop-color="#4f46e5"/></radialGradient><path d="m143.009 12.5c29.951-.017 58.995 10.2805 82.252 29.1621 23.257 18.8817 39.309 45.1968 45.459 74.5239 6.151 29.327 2.025 59.878-11.685 86.52-13.709 26.641-36.167 47.75-63.598 59.78l-31.778-81.217c8.516-4.597 15.256-11.906 19.152-20.769 3.895-8.862 4.724-18.772 2.354-28.159-2.369-9.387-7.802-17.714-15.436-23.664-7.635-5.949-17.035-9.179-26.712-9.179s-19.078 3.23-26.712 9.179c-7.635 5.95-13.067 14.277-15.437 23.664-2.3697 9.387-1.5411 19.297 2.355 28.159 3.895 8.863 10.635 16.172 19.152 20.769l-31.7786 81.231c-27.4392-12.023-49.905-33.131-63.6213-59.774-13.7162-26.644-17.84676-57.2-11.6973-86.532 6.1495-29.3315 22.204-55.6512 45.4652-74.535 23.2612-18.8837 52.311-29.1803 82.266-29.159z" stroke="url(#a)" stroke-linecap="round" stroke-linejoin="round" stroke-width="25"/><g fill="#18181b"><path d="m1524.44 137.886-20.51 2.237c-.58-2.071-1.6-4.019-3.05-5.842-1.41-1.822-3.31-3.293-5.71-4.412-2.41-1.118-5.35-1.678-8.83-1.678-4.68 0-8.62 1.015-11.81 3.045-3.15 2.03-4.7 4.661-4.66 7.893-.04 2.776.98 5.033 3.05 6.774 2.11 1.74 5.59 3.169 10.44 4.288l16.28 3.48c9.03 1.947 15.74 5.033 20.13 9.259 4.44 4.226 6.67 9.757 6.72 16.593-.05 6.007-1.81 11.31-5.29 15.909-3.43 4.557-8.22 8.12-14.35 10.689s-13.18 3.853-21.13 3.853c-11.68 0-21.09-2.444-28.21-7.333-7.13-4.93-11.38-11.787-12.74-20.57l21.93-2.113c1 4.309 3.11 7.561 6.34 9.757 3.23 2.195 7.44 3.293 12.62 3.293 5.34 0 9.63-1.098 12.86-3.293 3.27-2.196 4.91-4.91 4.91-8.141 0-2.735-1.06-4.993-3.17-6.774-2.07-1.782-5.3-3.149-9.69-4.102l-16.29-3.418c-9.15-1.905-15.93-5.116-20.32-9.632-4.39-4.557-6.56-10.316-6.52-17.276-.04-5.883 1.55-10.979 4.78-15.288 3.28-4.35 7.81-7.706 13.61-10.067 5.84-2.403 12.58-3.605 20.2-3.605 11.19 0 19.99 2.382 26.41 7.147 6.46 4.764 10.46 11.207 12 19.327z"/><path d="m1377.1 152.179v55.931h-22.5v-95.455h21.5v16.22h1.12c2.2-5.345 5.7-9.591 10.5-12.74 4.85-3.149 10.84-4.723 17.96-4.723 6.59 0 12.33 1.409 17.22 4.226 4.93 2.817 8.74 6.898 11.43 12.243 2.74 5.344 4.08 11.828 4.04 19.451v60.778h-22.49v-57.298c0-6.38-1.66-11.373-4.98-14.977-3.27-3.604-7.81-5.407-13.61-5.407-3.93 0-7.43.87-10.5 2.611-3.02 1.698-5.4 4.163-7.14 7.395-1.7 3.231-2.55 7.146-2.55 11.745z"/><path d="m1302.02 209.974c-9.32 0-17.4-2.051-24.24-6.152-6.83-4.102-12.14-9.84-15.91-17.215-3.73-7.374-5.59-15.992-5.59-25.852s1.86-18.498 5.59-25.914c3.77-7.416 9.08-13.175 15.91-17.277 6.84-4.101 14.92-6.152 24.24-6.152s17.4 2.051 24.23 6.152c6.84 4.102 12.12 9.861 15.85 17.277 3.77 7.416 5.66 16.054 5.66 25.914s-1.89 18.478-5.66 25.852c-3.73 7.375-9.01 13.113-15.85 17.215-6.83 4.101-14.91 6.152-24.23 6.152zm.12-18.022c5.06 0 9.28-1.388 12.68-4.164 3.4-2.817 5.92-6.587 7.58-11.31 1.7-4.723 2.55-9.985 2.55-15.785 0-5.842-.85-11.124-2.55-15.847-1.66-4.764-4.18-8.555-7.58-11.372-3.4-2.818-7.62-4.226-12.68-4.226-5.18 0-9.48 1.408-12.92 4.226-3.4 2.817-5.95 6.608-7.65 11.372-1.65 4.723-2.48 10.005-2.48 15.847 0 5.8.83 11.062 2.48 15.785 1.7 4.723 4.25 8.493 7.65 11.31 3.44 2.776 7.74 4.164 12.92 4.164z"/><path d="m1213.27 209.974c-9.53 0-17.71-2.092-24.55-6.277-6.79-4.184-12.04-9.964-15.72-17.338-3.65-7.416-5.47-15.951-5.47-25.604 0-9.694 1.86-18.25 5.59-25.666 3.73-7.457 8.99-13.257 15.79-17.4 6.83-4.185 14.91-6.277 24.23-6.277 7.75 0 14.61 1.429 20.57 4.288 6.01 2.817 10.8 6.815 14.36 11.994 3.56 5.137 5.59 11.145 6.09 18.022h-21.5c-.87-4.599-2.94-8.431-6.22-11.497-3.23-3.107-7.56-4.661-12.99-4.661-4.59 0-8.63 1.243-12.11 3.729-3.48 2.444-6.2 5.966-8.15 10.565-1.9 4.598-2.85 10.109-2.85 16.53 0 6.505.95 12.098 2.85 16.779 1.91 4.641 4.58 8.224 8.02 10.751 3.48 2.486 7.56 3.729 12.24 3.729 3.32 0 6.28-.621 8.89-1.864 2.65-1.285 4.87-3.128 6.65-5.531s3-5.324 3.67-8.763h21.5c-.54 6.754-2.53 12.74-5.97 17.96-3.44 5.179-8.12 9.239-14.04 12.181-5.93 2.9-12.89 4.35-20.88 4.35z"/><path d="m1159.91 80.8359v127.2731h-23.06v-127.2731z"/><path d="m1032.81 152.179v55.931h-22.5v-95.455h21.5v16.22h1.12c2.2-5.345 5.7-9.591 10.5-12.74 4.85-3.149 10.84-4.723 17.96-4.723 6.59 0 12.33 1.409 17.22 4.226 4.93 2.817 8.74 6.898 11.43 12.243 2.74 5.344 4.08 11.828 4.04 19.451v60.778h-22.5v-57.298c0-6.38-1.65-11.373-4.97-14.977-3.27-3.604-7.81-5.407-13.61-5.407-3.93 0-7.43.87-10.5 2.611-3.02 1.698-5.41 4.163-7.15 7.395-1.7 3.231-2.54 7.146-2.54 11.745z"/><path d="m961.082 209.974c-9.57 0-17.835-1.989-24.796-5.966-6.918-4.019-12.242-9.695-15.971-17.028-3.729-7.374-5.593-16.054-5.593-26.038 0-9.819 1.864-18.437 5.593-25.853 3.77-7.457 9.032-13.257 15.785-17.4 6.753-4.185 14.687-6.277 23.801-6.277 5.884 0 11.435.953 16.655 2.859 5.262 1.864 9.902 4.764 13.921 8.7 4.06 3.936 7.25 8.949 9.573 15.039 2.32 6.049 3.48 13.258 3.48 21.627v6.898h-78.243v-15.164h56.676c-.041-4.308-.974-8.141-2.797-11.497-1.823-3.397-4.37-6.069-7.643-8.016-3.232-1.947-7.002-2.921-11.311-2.921-4.599 0-8.638 1.119-12.118 3.356-3.48 2.196-6.194 5.096-8.141 8.7-1.906 3.563-2.879 7.478-2.921 11.745v13.237c0 5.552 1.015 10.316 3.045 14.294 2.03 3.935 4.868 6.96 8.514 9.073 3.646 2.071 7.913 3.107 12.802 3.107 3.273 0 6.235-.456 8.887-1.367 2.651-.953 4.951-2.341 6.898-4.164s3.418-4.081 4.412-6.774l21.01 2.362c-1.33 5.551-3.858 10.399-7.587 14.542-3.687 4.101-8.41 7.291-14.169 9.57-5.758 2.237-12.346 3.356-19.762 3.356z"/><path d="m821.699 243.905v-131.25h22.123v15.785h1.305c1.16-2.32 2.797-4.785 4.91-7.395 2.113-2.652 4.971-4.91 8.576-6.774 3.604-1.906 8.203-2.859 13.796-2.859 7.374 0 14.024 1.885 19.948 5.655 5.966 3.729 10.689 9.26 14.169 16.593 3.522 7.292 5.283 16.241 5.283 26.847 0 10.481-1.72 19.389-5.158 26.722-3.439 7.333-8.121 12.926-14.045 16.779s-12.636 5.779-20.135 5.779c-5.469 0-10.005-.911-13.61-2.734-3.604-1.823-6.504-4.019-8.7-6.587-2.154-2.61-3.832-5.075-5.034-7.396h-.932v50.835zm22.061-83.523c0 6.173.87 11.58 2.61 16.22 1.782 4.64 4.33 8.265 7.644 10.875 3.356 2.569 7.416 3.853 12.18 3.853 4.972 0 9.136-1.325 12.492-3.977 3.355-2.693 5.883-6.359 7.581-10.999 1.74-4.682 2.61-10.006 2.61-15.972 0-5.924-.849-11.186-2.548-15.785-1.698-4.598-4.225-8.203-7.581-10.813s-7.541-3.915-12.554-3.915c-4.805 0-8.886 1.264-12.242 3.791s-5.904 6.069-7.644 10.627c-1.699 4.557-2.548 9.922-2.548 16.095z"/><path d="m813.146 144.472c0 13.713-2.569 25.459-7.706 35.236-5.096 9.736-12.056 17.194-20.881 22.372-8.783 5.179-18.747 7.769-29.892 7.769-11.144 0-21.129-2.59-29.954-7.769-8.783-5.22-15.743-12.698-20.88-22.434-5.096-9.777-7.644-21.502-7.644-35.174 0-13.713 2.548-25.438 7.644-35.174 5.137-9.7773 12.097-17.2554 20.88-22.4342 8.825-5.1787 18.81-7.7681 29.954-7.7681 11.145 0 21.109 2.5894 29.892 7.7681 8.825 5.1788 15.785 12.6569 20.881 22.4342 5.137 9.736 7.706 21.461 7.706 35.174zm-23.18 0c0-9.653-1.513-17.794-4.537-24.423-2.983-6.67-7.126-11.704-12.429-15.101-5.303-3.439-11.414-5.158-18.333-5.158s-13.029 1.719-18.332 5.158c-5.303 3.397-9.467 8.431-12.492 15.101-2.983 6.629-4.474 14.77-4.474 24.423s1.491 17.815 4.474 24.485c3.025 6.629 7.189 11.663 12.492 15.101 5.303 3.398 11.413 5.096 18.332 5.096s13.03-1.698 18.333-5.096c5.303-3.438 9.446-8.472 12.429-15.101 3.024-6.67 4.537-14.832 4.537-24.485z"/><path d="m577.973 208.109v-127.2731h81.534v19.3271h-58.478v34.553h52.885v19.327h-52.885v54.066z"/><path d="m569.11 123.778h-23.243c-.663-3.812-1.885-7.188-3.666-10.13-1.782-2.983-3.998-5.51-6.65-7.581-2.651-2.072-5.676-3.626-9.073-4.661-3.356-1.077-6.981-1.616-10.875-1.616-6.919 0-13.051 1.74-18.395 5.22-5.345 3.439-9.529 8.493-12.553 15.163-3.025 6.629-4.537 14.729-4.537 24.299 0 9.736 1.512 17.939 4.537 24.609 3.065 6.629 7.25 11.642 12.553 15.04 5.344 3.355 11.455 5.033 18.333 5.033 3.811 0 7.374-.497 10.689-1.491 3.355-1.036 6.359-2.548 9.011-4.537 2.692-1.988 4.95-4.433 6.773-7.333 1.865-2.9 3.149-6.214 3.853-9.943l23.243.124c-.871 6.049-2.756 11.725-5.656 17.028-2.858 5.303-6.608 9.985-11.248 14.045-4.64 4.018-10.067 7.167-16.282 9.446-6.214 2.237-13.112 3.356-20.694 3.356-11.186 0-21.171-2.59-29.954-7.769-8.783-5.178-15.702-12.656-20.756-22.434-5.055-9.777-7.582-21.502-7.582-35.174 0-13.713 2.548-25.438 7.644-35.174 5.096-9.7773 12.035-17.2554 20.818-22.4342 8.783-5.1787 18.727-7.7681 29.83-7.7681 7.084 0 13.672.9943 19.762 2.983 6.09 1.9886 11.517 4.9094 16.282 8.7624 4.764 3.8115 8.68 8.4931 11.745 14.0449 3.108 5.51 5.138 11.807 6.091 18.892z"/><path d="m368.109 208.109h-24.609l44.806-127.2731h28.463l44.868 127.2731h-24.609l-33.993-101.172h-.995zm.808-49.903h67.117v18.52h-67.117z"/></g></svg>